<mxfile host="app.diagrams.net" agent="Mozilla/5.0 (Windows NT 10.0; Win64; x64) AppleWebKit/537.36 (KHTML, like Gecko) Chrome/138.0.0.0 Safari/537.36" version="28.0.6">
  <diagram name="Page-1" id="qw4ptvceqLA-Kb5ERg8t">
    <mxGraphModel dx="443" dy="412" grid="1" gridSize="10" guides="1" tooltips="1" connect="1" arrows="1" fold="1" page="1" pageScale="1" pageWidth="1169" pageHeight="827" math="1" shadow="0">
      <root>
        <mxCell id="0" />
        <mxCell id="1" parent="0" />
        <mxCell id="sPyVwJb8C6-40oOCWK5Y-4" value="$$1$$" style="edgeStyle=orthogonalEdgeStyle;rounded=0;orthogonalLoop=1;jettySize=auto;html=1;endArrow=none;endFill=0;fontFamily=Times New Roman;fontSize=16;labelBackgroundColor=none;" edge="1" parent="1" source="sPyVwJb8C6-40oOCWK5Y-1" target="sPyVwJb8C6-40oOCWK5Y-2">
          <mxGeometry y="15" relative="1" as="geometry">
            <mxPoint as="offset" />
          </mxGeometry>
        </mxCell>
        <mxCell id="sPyVwJb8C6-40oOCWK5Y-1" value="$$capacity_1$$" style="ellipse;whiteSpace=wrap;html=1;aspect=fixed;fontFamily=Times New Roman;fontSize=13;" vertex="1" parent="1">
          <mxGeometry x="290" y="160" width="70" height="70" as="geometry" />
        </mxCell>
        <mxCell id="sPyVwJb8C6-40oOCWK5Y-6" value="$$2$$" style="shape=connector;rounded=0;orthogonalLoop=1;jettySize=auto;html=1;strokeColor=default;align=center;verticalAlign=middle;fontFamily=Times New Roman;fontSize=16;fontColor=default;labelBackgroundColor=none;endArrow=none;endFill=0;exitX=0.5;exitY=1;exitDx=0;exitDy=0;entryX=1;entryY=0;entryDx=0;entryDy=0;" edge="1" parent="1" source="sPyVwJb8C6-40oOCWK5Y-2" target="sPyVwJb8C6-40oOCWK5Y-5">
          <mxGeometry x="-0.037" y="-14" relative="1" as="geometry">
            <mxPoint as="offset" />
          </mxGeometry>
        </mxCell>
        <mxCell id="sPyVwJb8C6-40oOCWK5Y-2" value="$$capacity_3$$" style="ellipse;whiteSpace=wrap;html=1;aspect=fixed;fontFamily=Times New Roman;fontStyle=0;fontSize=13;" vertex="1" parent="1">
          <mxGeometry x="440" y="160" width="70" height="70" as="geometry" />
        </mxCell>
        <mxCell id="sPyVwJb8C6-40oOCWK5Y-5" value="$$capacity_{12}$$" style="ellipse;whiteSpace=wrap;html=1;aspect=fixed;fontFamily=Times New Roman;fontStyle=0;fontSize=13;" vertex="1" parent="1">
          <mxGeometry x="365" y="280" width="70" height="70" as="geometry" />
        </mxCell>
        <mxCell id="sPyVwJb8C6-40oOCWK5Y-8" value="$$1$$" style="shape=connector;rounded=0;orthogonalLoop=1;jettySize=auto;html=1;exitX=0.5;exitY=1;exitDx=0;exitDy=0;strokeColor=default;align=center;verticalAlign=middle;fontFamily=Times New Roman;fontSize=16;fontColor=default;labelBackgroundColor=none;endArrow=none;endFill=0;entryX=0;entryY=0;entryDx=0;entryDy=0;" edge="1" parent="1" source="sPyVwJb8C6-40oOCWK5Y-1" target="sPyVwJb8C6-40oOCWK5Y-5">
          <mxGeometry x="-0.037" y="14" relative="1" as="geometry">
            <mxPoint as="offset" />
          </mxGeometry>
        </mxCell>
      </root>
    </mxGraphModel>
  </diagram>
</mxfile>
